<svg width="135" height="40" viewBox="0 0 135 40" fill="none" xmlns="http://www.w3.org/2000/svg">
<path d="M5.936 14.984V16.728H16.144V14.984H5.936ZM8.032 19.416H13.872V21H8.032V19.416ZM6.288 17.848V22.568H15.712V17.848H6.288ZM7.792 22.728L6.224 23.208C7.968 26.216 10.928 27.832 15.264 28.424C15.504 27.896 15.984 27.128 16.384 26.712C12.24 26.328 9.216 25.032 7.792 22.728ZM9.984 13.512V20.808C9.984 23.432 9.568 25.88 5.264 26.84C5.68 27.24 6.24 28.008 6.464 28.44C11.056 27.064 11.872 24.088 11.872 20.824V13.512H9.984ZM4.72 13.368C3.856 15.656 2.368 17.928 0.847999 19.368C1.168 19.832 1.68 20.888 1.84 21.336C3.664 19.528 5.424 16.664 6.512 13.944L4.72 13.368ZM3.168 17.832V28.472H4.992V16.024L4.976 16.008L3.168 17.832ZM25.12 14.488V16.312H34.944V14.488H25.12ZM25.12 18.168V19.96H34.976V18.168H25.12ZM25.088 21.944V23.752H35.04V21.944H25.088ZM24.016 14.488V20.232C24.016 22.488 23.872 25.352 22.128 27.288C22.544 27.528 23.328 28.168 23.632 28.536C25.6 26.392 25.92 22.792 25.92 20.248V14.488H24.016ZM34.272 14.488V26.168C34.272 26.44 34.16 26.536 33.856 26.552C33.568 26.552 32.512 26.568 31.6 26.504C31.856 27 32.144 27.832 32.224 28.344C33.68 28.36 34.64 28.328 35.312 28.024C35.952 27.72 36.176 27.208 36.176 26.184V14.488H34.272ZM28.944 15.208V28.248H30.896V15.208H28.944ZM43.76 15.88V17.56H49.632V15.88H43.76ZM43.488 19.592V21.32H49.888V19.592H43.488ZM45.824 13.576V19.352C45.824 21.784 45.664 25.112 43.28 26.856C43.712 27.192 44.32 27.848 44.576 28.248C47.264 26.04 47.632 22.344 47.632 19.352V13.576H45.824ZM47.376 21.592L46.192 22.488C46.88 23.288 48.224 25.048 48.816 26.024L50.112 24.632C49.712 24.152 47.92 22.088 47.376 21.592ZM52.16 18.136H55.664V19.064H52.16V18.136ZM52.16 20.584H55.664V21.528H52.16V20.584ZM52.16 15.672H55.664V16.6H52.16V15.672ZM50.384 13.976V23.224H57.504V13.976H50.384ZM54.016 22.632V26.008C54.016 27.576 54.32 28.12 55.744 28.12C56.016 28.12 56.544 28.12 56.816 28.12C57.952 28.12 58.384 27.544 58.544 25.256C58.08 25.128 57.312 24.84 56.976 24.552C56.928 26.248 56.88 26.472 56.624 26.472C56.512 26.472 56.16 26.472 56.064 26.472C55.824 26.472 55.808 26.424 55.808 25.976V22.632H54.016ZM51.424 22.952C51.232 24.792 50.816 26.2 48.336 27.016C48.704 27.352 49.184 28.024 49.376 28.456C52.32 27.352 52.976 25.448 53.232 22.952H51.424ZM64.848 18.168V19.544H72.336V18.168H64.848ZM64.672 25.224V26.632H72.448V25.224H64.672ZM73.568 17.912V19.56H77.744V17.912H73.568ZM67.872 17.32V28.44H69.472V17.32H67.872ZM72.848 17.912V25.56C72.848 27.528 73.392 28.056 75.12 28.056C75.488 28.056 76.976 28.056 77.376 28.056C78.896 28.056 79.392 27.368 79.6 25.112C79.088 25 78.352 24.696 77.936 24.408C77.872 26.008 77.76 26.344 77.216 26.344C76.88 26.344 75.664 26.344 75.376 26.344C74.768 26.344 74.672 26.232 74.672 25.544V17.912H72.848ZM76.784 17.912V22.44C76.784 22.616 76.736 22.664 76.528 22.68C76.32 22.68 75.648 22.68 75.024 22.648C75.264 23.128 75.568 23.896 75.664 24.424C76.64 24.424 77.36 24.392 77.904 24.088C78.48 23.8 78.624 23.288 78.624 22.488V17.912H76.784ZM66.8 22.904H70.432V23.544H66.8V22.904ZM66.8 21.192H70.432V21.832H66.8V21.192ZM65.312 20.056V24.696H72.016V20.056H65.312ZM66.768 14.376V15.848H71.792V14.376H66.768ZM73.392 14.392V15.848H79.392V14.392H73.392ZM66.864 13.272C66.368 14.536 65.472 15.8 64.544 16.632C64.912 16.936 65.552 17.608 65.824 17.944C66.848 16.92 67.92 15.32 68.56 13.768L66.864 13.272ZM73.488 13.272C73.072 14.6 72.304 15.944 71.392 16.792C71.808 17.048 72.512 17.608 72.832 17.912C73.792 16.904 74.72 15.304 75.232 13.704L73.488 13.272ZM67.808 16.376C68.384 16.872 69.12 17.576 69.456 18.04L70.656 16.92C70.288 16.472 69.536 15.816 68.944 15.384L67.808 16.376ZM74.784 16.424C75.36 16.856 76.08 17.512 76.416 17.944L77.696 16.824C77.328 16.408 76.576 15.8 76.016 15.4L74.784 16.424Z" fill="#370617"/>
<circle cx="115" cy="20" r="19" transform="rotate(90 115 20)" stroke="#370617" stroke-width="2"/>
<path d="M103 19C102.448 19 102 19.4477 102 20C102 20.5523 102.448 21 103 21L103 19ZM125.707 20.7071C126.098 20.3166 126.098 19.6834 125.707 19.2929L119.343 12.9289C118.953 12.5384 118.319 12.5384 117.929 12.9289C117.538 13.3195 117.538 13.9526 117.929 14.3431L123.586 20L117.929 25.6569C117.538 26.0474 117.538 26.6805 117.929 27.0711C118.319 27.4616 118.953 27.4616 119.343 27.0711L125.707 20.7071ZM103 21L125 21L125 19L103 19L103 21Z" fill="#370617"/>
</svg>
