<svg width="35" height="35" viewBox="0 0 35 35" fill="none" xmlns="http://www.w3.org/2000/svg">
<path d="M0.00250924 16.9721C0.00250924 7.21594 7.64071 0 17.5013 0C27.3618 0 35 7.21594 35 16.9721C35 26.7227 27.3618 33.9441 17.5013 33.9441C15.735 33.9441 14.0321 33.7101 12.443 33.2716C12.1302 33.1863 11.7989 33.2148 11.509 33.346L8.0224 34.878C7.11138 35.2826 6.08004 34.633 6.05161 33.6369L5.9488 30.516C5.93787 30.1344 5.76616 29.7812 5.48727 29.5253C1.93831 26.3247 -0.0609237 21.7517 0.00141557 16.9732L0.00250924 16.9721ZM12.1357 13.7769L7.0031 21.9442C6.49017 22.7129 7.4701 23.6074 8.19958 23.0377L13.7248 18.8518C14.1065 18.5609 14.6019 18.5609 14.9946 18.8518L19.0729 21.9157C20.3032 22.8332 22.052 22.4964 22.8668 21.2148L27.9994 13.0475C28.5123 12.2788 27.5324 11.4018 26.8029 11.954L21.2777 16.1399C20.9135 16.4308 20.4006 16.4308 20.0244 16.1399L15.9406 13.076C14.7102 12.1476 12.956 12.4724 12.1357 13.7769Z" fill="#370617"/>
</svg>
