<svg width="21" height="21" viewBox="0 0 21 21" fill="none" xmlns="http://www.w3.org/2000/svg">
<path d="M20.4621 10.2913C20.4621 4.60601 15.8792 0 10.2311 0C4.57904 0 0 4.60601 0 10.2913C0 15.4267 3.74009 19.6847 8.63245 20.4559V13.2668H6.03441V10.292H8.63245V8.02337C8.63245 5.44475 10.1575 4.02069 12.4953 4.02069C13.615 4.02069 14.7871 4.22137 14.7871 4.22137V6.75367H13.4948C12.2261 6.75367 11.8297 7.54804 11.8297 8.36169V10.2913H14.6669L14.2109 13.2661H11.8297V20.4553C16.7182 19.6841 20.4621 15.426 20.4621 10.2907V10.2913Z" fill="#1B337D"/>
</svg>
